<svg width="384" height="362" viewBox="0 0 384 362" fill="none" xmlns="http://www.w3.org/2000/svg">
<rect width="384" height="362" fill="#1E1E1E"/>
<rect width="384" height="362" fill="white"/>
<line x1="184.5" y1="100.994" x2="186.5" y2="276.994" stroke="black"/>
<line x1="79" y1="180.5" x2="293" y2="180.5" stroke="black"/>
<line x1="88.3003" y1="107.6" x2="281.3" y2="252.6" stroke="black"/>
<line x1="96.6577" y1="263.636" x2="260.658" y2="109.636" stroke="black"/>
<line x1="85.2957" y1="158.597" x2="115.296" y2="180.597" stroke="black"/>
<line x1="115.361" y1="181.346" x2="92.361" y2="205.346" stroke="black"/>
<line x1="119.929" y1="240.495" x2="91.9293" y2="236.495" stroke="black"/>
<line x1="120.498" y1="241.958" x2="122.498" y2="265.958" stroke="black"/>
<line x1="186.307" y1="252.395" x2="168.307" y2="266.395" stroke="black"/>
<line x1="186.297" y1="251.597" x2="205.297" y2="265.597" stroke="black"/>
<line x1="256.5" y1="233.022" x2="255.5" y2="256.022" stroke="black"/>
<line x1="257.021" y1="232.5" x2="281.021" y2="233.5" stroke="black"/>
<line x1="269.676" y1="180.619" x2="289.676" y2="163.619" stroke="black"/>
<line x1="271.333" y1="180.627" x2="290.333" y2="197.627" stroke="black"/>
<line x1="240.508" y1="127.909" x2="245.508" y2="100.909" stroke="black"/>
<line x1="240.158" y1="127.526" x2="261.158" y2="134.526" stroke="black"/>
<line x1="184.616" y1="124.68" x2="204.616" y2="100.68" stroke="black"/>
<line x1="184.63" y1="124.336" x2="164.63" y2="102.336" stroke="black"/>
<line x1="114.501" y1="129.036" x2="112.501" y2="101.036" stroke="black"/>
<line x1="114" y1="128.5" x2="88" y2="128.5" stroke="black"/>
</svg>
